<svg width="22" height="23" viewBox="0 0 22 23" fill="none" xmlns="http://www.w3.org/2000/svg">
<path d="M11.6508 12.7835C11.5656 12.8694 11.4642 12.9376 11.3525 12.9842C11.2408 13.0307 11.121 13.0547 11 13.0547C10.879 13.0547 10.7592 13.0307 10.6475 12.9842C10.5358 12.9376 10.4344 12.8694 10.3492 12.7835L6.15084 8.576C6.06562 8.49008 5.96424 8.42189 5.85253 8.37535C5.74083 8.32881 5.62102 8.30485 5.50001 8.30485C5.37899 8.30485 5.25918 8.32881 5.14748 8.37535C5.03577 8.42189 4.93439 8.49008 4.84917 8.576C4.67844 8.74775 4.58261 8.98008 4.58261 9.22225C4.58261 9.46442 4.67844 9.69675 4.84917 9.8685L9.05668 14.076C9.5723 14.591 10.2713 14.8802 11 14.8802C11.7288 14.8802 12.4277 14.591 12.9433 14.076L17.1509 9.8685C17.3202 9.69776 17.4157 9.46731 17.4167 9.22684C17.4174 9.1062 17.3943 8.9866 17.3486 8.87492C17.303 8.76324 17.2358 8.66166 17.1509 8.576C17.0656 8.49008 16.9643 8.42189 16.8525 8.37535C16.7408 8.32881 16.621 8.30485 16.5 8.30485C16.379 8.30485 16.2592 8.32881 16.1475 8.37535C16.0358 8.42189 15.9344 8.49008 15.8492 8.576L11.6508 12.7835Z" fill="#FD9222"/>
</svg>
